<svg stroke-miterlimit="10" style="fill-rule:nonzero;clip-rule:evenodd;stroke-linecap:round;stroke-linejoin:round" viewBox="0 0 181.44 181.44" xml:space="preserve" xmlns="http://www.w3.org/2000/svg" xmlns:vectornator="http://vectornator.io"><g id="Layer-2" vectornator:layerName="Layer 2" fill="#7171f4" fill-rule="evenodd"><path d="M53.718 110.83c-.46.019-.93.029-1.409.029M53.94 116.04c5.35 1.371 14.064 2.315 26.337 1.686 8.008-.411-10.958-12.537-10.958-12.537s-5.2 5.201-15.601 5.641"/></g><g fill-rule="evenodd" id="Layer-1" vectornator:layerName="Layer 1"><path d="M85.814 5.67a4.259 4.259 0 0 0-4.197 3.555l-2.608 15.664a66.447 66.447 0 0 0-11.085 2.952L57.846 15.598a4.241 4.241 0 0 0-5.41-.98l-8.482 4.9a4.238 4.238 0 0 0-1.855 5.166l5.57 14.879a67.258 67.258 0 0 0-8.1 8.106l-14.885-5.57a4.238 4.238 0 0 0-5.166 1.855l-4.9 8.482a4.241 4.241 0 0 0 .98 5.41l12.243 10.078a66.447 66.447 0 0 0-2.952 11.085L9.225 81.617A4.264 4.264 0 0 0 5.67 85.82v9.806a4.259 4.259 0 0 0 3.555 4.197l15.664 2.608a66.428 66.428 0 0 0 2.952 11.085l-12.243 10.078a4.251 4.251 0 0 0-.98 5.41l4.9 8.482a4.237 4.237 0 0 0 5.166 1.855l14.879-5.57a67.267 67.267 0 0 0 8.106 8.101l-5.57 14.872a4.251 4.251 0 0 0 1.855 5.172l8.482 4.9a4.26 4.26 0 0 0 5.41-.98l7.304-8.87c-5.67-7.571-8.847-14.685-8.998-27.176 0-.242.012-.484.016-.726-10.478-9.447-17.065-23.125-17.065-38.344 0-28.507 23.11-51.617 51.617-51.617 28.507 0 51.617 23.11 51.617 51.617 0 14.977-6.384 28.456-16.573 37.885 2.134 6.939 2.679 16.72 2.542 24.457-.057 3.195.861 5.766 2.132 8.444.309.652 1.382 2.188 3.167 2.359.137.013.245.058.371.083l3.51-2.026a4.237 4.237 0 0 0 1.855-5.166l-5.57-14.879a67.198 67.198 0 0 0 8.101-8.106l14.872 5.57a4.25 4.25 0 0 0 5.172-1.855l4.9-8.482a4.26 4.26 0 0 0-.98-5.41l-12.237-10.078a66.352 66.352 0 0 0 2.952-11.085l15.664-2.608a4.264 4.264 0 0 0 3.555-4.203v-9.806a4.259 4.259 0 0 0-3.555-4.197l-15.664-2.608a66.371 66.371 0 0 0-2.952-11.085l12.243-10.078a4.251 4.251 0 0 0 .98-5.41l-4.9-8.482a4.238 4.238 0 0 0-5.166-1.855l-14.879 5.57a67.19 67.19 0 0 0-8.106-8.1l5.57-14.874a4.25 4.25 0 0 0-1.855-5.171l-8.482-4.9a4.261 4.261 0 0 0-5.41.98L113.516 27.84a66.428 66.428 0 0 0-11.085-2.952L99.823 9.225A4.264 4.264 0 0 0 95.62 5.67h-9.806Z" fill="#7171f4"/><path d="M127.986 170.773c-3.726-.428-4.465-.709-5.813-1.41a30.213 30.213 0 0 1-3.702-2.24 3.88 3.88 0 0 0-1.714-.725 1.962 1.962 0 0 0-1.212.282 3.247 3.247 0 0 0-1.541 2.116c-.903 3.863-1.17 6.981-6.23 6.974H77.219c-16.666.007-13.336-7.345-1.733-12.537.406-.166.138-.561-.091-.734C66.92 152.446 62.188 145.253 62 129.792a45.752 45.752 0 0 1 .762-8.336v-.003a45.173 45.173 0 0 1 6.406-16.237l.003-.008a46.222 46.222 0 0 1 6.223-7.739c5.443-5.214 5.432-14.614 0-19.85-.032 0-.032 0-.032-.031-6-4.29-10.237-4.787-13.084-4.343-.462.071-5.2.84-6.586-.568l-.011-.012c-.832-.85-.746-2.111-.722-2.37.004-.144.026-.287.066-.425 2.524-7.765 9.303-12.322 17.268-13.168.493-.039.968-.2 1.383-.47 3.879-2.689 7.156-4.26 8.499-4.697 4.543-1.477 9.846-1.028 15.206.829a19.367 19.367 0 0 1 7.025 4.022 18.261 18.261 0 0 1 4.511 6.248c1.469 3.483 1.407 6.641 1.368 8.593a25.994 25.994 0 0 1-.206 2.802c-.318 2.479-.928 4.302-1.413 6.54-1.609 7.417-1.848 13.22 4.25 31.951 1.116 3.427 4.079 9.659 6.921 18.042 2.363 6.97 2.94 17.275 2.797 25.333-.057 3.196.862 5.768 2.133 8.446.309.652 1.384 2.188 3.169 2.36 3.322.319 3.256 4.441.049 4.072Z" fill="#7171f4"/><path d="M69.638 60.977c-6.028.15-9.588 6.736-9.802 7.62a1.55 1.55 0 0 0 .02.794c.091.28.287.515.547.654.224.11.481.132.721.062.414-.08.673-.153 1.118-.219 1.527-.228 5.874.303 9.507 1.276a.97.97 0 0 0 1.193-.692c.769-2.982.908-8.312-2.06-9.35a3.3 3.3 0 0 0-1.244-.145Z" fill="#fdd353"/><path d="M84.501 63.772c-2.904-.034-2.898-4.495 0-4.51 2.938.008 2.941 4.482 0 4.51ZM77.52 103.545c-.657.812-1.338 1.765-1.338 1.765a39.552 39.552 0 0 0-1.132 1.673l-.003.006a38.71 38.71 0 0 0-5.488 13.91v.003a39.193 39.193 0 0 0-.653 7.141 41.151 41.151 0 0 0 2.322 13.82 36.948 36.948 0 0 0 6.262 10.79 16.427 16.427 0 0 0 7.808 5.212l.063.019c.87.264 11.456 2.914 16.439-.927 4.424-3.41-3.767-23.716-6.323-28.8-1.987-3.952-4.103-7.876-4.998-10.289-2.063-5.565-1.948-10.647-3.642-17.096-.19-.721-.666-1.756-1.612-2.126-2.586-1.01-6.952 3.967-7.705 4.899Z" fill="#fff"/></g><g id="Layer-3" vectornator:layerName="Layer 3" fill-rule="evenodd"><path d="M25.555 132.785a1.234 1.234 0 0 0-.252-.12c-2.125-.472-3.4-1.925-3.569-4.114-.385-5.012-.761-10.024-1.128-15.037-.03-.405-.075-.508-.529-.393a2.572 2.572 0 0 1-3.22-2.31c-.116-1.114-.179-2.233-.26-3.35-.18-2.521-.433-5.04-.518-7.564-.115-3.41 2.412-6.626 5.716-7.448a5.446 5.446 0 0 1 1.268-.221c.425.004.815-.236 1.002-.618a7.679 7.679 0 0 1 10.977-1.907c.165.156.41.192.614.092a4.239 4.239 0 0 1 4.824 1.131.426.426 0 0 0 .563.159 4.296 4.296 0 0 1 4.572 7.042.794.794 0 0 0-.192.518c.022.645.106 1.288.127 1.934.01.322.133.357.414.333 1.245-.109 2.492-.197 3.737-.288 2.582-.19 4.583 1.444 4.797 4.026.402 4.852.768 9.707 1.099 14.564.176 2.584-1.559 4.503-4.138 4.703-1.231.095-2.462.203-3.695.268-.375.02-.433.142-.398.484.081.785.148 1.574.162 2.363a4.225 4.225 0 0 1-3.247 4.262c-.03.008-.05.055-.076.084l-18.65 1.407Zm16.765-5.586c.086-.643.332-.887.96-.938.645-.052 1.29-.124 1.934-.137.419-.008.54-.113.504-.564a9162.771 9162.771 0 0 1-1.968-25.95c.014-.279-.073-.368-.377-.296-.334.086-.68.115-1.023.087-.367-.039-.427.063-.399.406.154 1.832.284 3.665.422 5.499a2.512 2.512 0 0 1-1.163 2.473.625.625 0 0 0-.334.684c.34 4.368.67 8.736.994 13.104.02.186.024.372.013.558a.825.825 0 0 1-.869.774c-.51-.005-.807-.357-.858-1.033-.256-3.366-.51-6.731-.763-10.097-.083-1.103-.16-2.206-.256-3.308-.012-.132-.087-.332-.186-.372-1.237-.503-1.714-1.464-1.78-2.74a76.228 76.228 0 0 0-.311-3.734 1.474 1.474 0 0 0-1.217-1.387c-.48-.08-.963-.132-1.448-.156a.854.854 0 0 0-.742.336 5.034 5.034 0 0 1-4.309 1.615 5.164 5.164 0 0 1-2.744-1.13c-.402-.311-.474-.281-.686.155a5.859 5.859 0 0 1-3.663 3.171c-.33.102-.41.226-.384.559.577 7.518 1.144 15.037 1.7 22.556.028.375.148.426.489.4 4.066-.319 8.133-.628 12.2-.928.673-.051.947.141 1.135.779-.092.66-.335.89-1.005.941-4.038.306-8.077.608-12.116.908-.347.026-.394.111-.199.388a2.577 2.577 0 0 0 2.433 1.175c2.391-.176 4.783-.356 7.174-.539 3.308-.25 6.617-.495 9.924-.752a2.55 2.55 0 0 0 2.188-1.519c.136-.272.14-.408-.24-.365-.642.073-1.289.106-1.933.152-.633.044-.914-.157-1.097-.775Zm-24.162-22.035.022.301c.13 1.704.253 3.408.39 5.111a.87.87 0 0 0 .944.894.903.903 0 0 0 .85-.997c0-.157-.02-.315-.032-.472-.154-2.048-.312-4.096-.461-6.144-.052-.713.223-1.033.928-1.13a4.236 4.236 0 0 0 3.434-2.596 1.763 1.763 0 0 1 1.782-1.166c.576.044 1.122.27 1.562.643a3.377 3.377 0 0 0 4.6-.373 2.43 2.43 0 0 1 1.962-.888c.473 0 .945.028 1.415.088 1.524.247 2.598 1.056 2.955 2.609.123.663.2 1.334.232 2.008.077.858.121 1.719.202 2.577a.853.853 0 0 0 1.101.822c.432-.119.64-.495.595-1.101-.165-2.22-.332-4.439-.5-6.659a3.641 3.641 0 0 1-.02-.472.843.843 0 0 1 1.115-.79c.22.062.434.15.657.199a2.653 2.653 0 0 0 2.968-1.382 2.577 2.577 0 0 0-3.81-3.237c-.65.428-1.106.313-1.475-.374a2.564 2.564 0 0 0-3.595-1.086c-.752.442-.901.429-1.55-.134a5.977 5.977 0 0 0-9.3 1.772 1.18 1.18 0 0 1-1.181.731 6.003 6.003 0 0 0-6.141 6.563c.107 1.562.233 3.122.35 4.683Zm35.176 6.91c-.074-.988-.146-1.976-.224-2.964-.121-1.547-.203-3.098-.382-4.637a2.484 2.484 0 0 0-2.608-2.142c-1.377.077-2.75.206-4.126.297-.238.015-.283.105-.26.317.04.356.075.715.08 1.074.003.276.088.359.377.333 1.23-.109 2.462-.193 3.694-.285.821-.061 1.138.203 1.2 1.023.36 4.74.717 9.481 1.072 14.221.06.793-.22 1.111-1.009 1.172-1.245.095-2.491.196-3.738.275-.267.017-.345.098-.307.36.05.313.073.628.07.945-.006.346.093.459.467.422 1.186-.118 2.377-.19 3.565-.28 1.841-.139 2.798-1.246 2.66-3.084-.175-2.349-.352-4.698-.53-7.047Zm-3.437.248c-.155-2.047-.314-4.094-.457-6.141-.02-.275-.09-.356-.376-.329-.928.089-1.86.156-2.79.212-.248.015-.3.093-.282.334.318 4.121.63 8.244.933 12.366.017.241.082.311.328.288.915-.084 1.831-.161 2.748-.204.33-.016.39-.114.364-.43-.17-2.031-.315-4.064-.468-6.096Z" fill="#7171f4"/><path d="M37.191 127.585c-.188-.638-.462-.83-1.134-.779-4.068.306-8.135.615-12.201.928-.341.026-.461-.025-.49-.4a7163.77 7163.77 0 0 0-1.699-22.556c-.025-.333.053-.457.384-.559a5.858 5.858 0 0 0 3.662-3.171c.213-.436.285-.466.687-.155a5.165 5.165 0 0 0 2.744 1.13 5.033 5.033 0 0 0 4.31-1.615.851.851 0 0 1 .741-.336c.485.024.969.076 1.448.156.68.12 1.186.696 1.217 1.387.126 1.242.247 2.487.312 3.734.066 1.276.542 2.237 1.78 2.74.098.04.174.24.185.372.095 1.102.173 2.205.257 3.308.253 3.366.508 6.731.762 10.097.051.676.349 1.028.858 1.033a.825.825 0 0 0 .87-.774c.01-.186.006-.372-.014-.558-.328-4.368-.66-8.736-.994-13.104a.625.625 0 0 1 .334-.684 2.512 2.512 0 0 0 1.163-2.473c-.138-1.834-.268-3.667-.422-5.5-.028-.342.032-.444.4-.405.343.028.688-.001 1.022-.087.304-.072.391.017.377.297a28144.514 28144.514 0 0 0 1.968 25.95c.035.45-.085.555-.504.563-.645.013-1.289.085-1.933.137-.628.051-.875.295-.96.937l-1.693.127c-.131-.584-.47-.893-.942-.857-.472.036-.762.393-.803.989l-1.692.128Zm-11.39-12.671.594 7.858c.008.186.034.371.076.552a.819.819 0 0 0 .874.611c.546-.039.84-.438.79-1.111-.4-5.34-.803-10.678-1.209-16.017-.05-.664-.411-1.039-.938-1.003-.526.036-.829.466-.79 1.123.006.1.015.2.023.3l.58 7.687Zm8.608-.606c-.2-2.633-.398-5.267-.597-7.901-.058-.771-.398-1.166-.958-1.121-.559.046-.828.484-.77 1.261l1.19 15.759c.008.157.03.314.064.468a.825.825 0 0 0 .935.636c.52-.063.786-.454.737-1.115-.198-2.662-.398-5.325-.601-7.987Z" fill="#fdd353"/><path d="M18.158 105.164c-.118-1.561-.244-3.121-.351-4.683a6.002 6.002 0 0 1 6.14-6.563 1.18 1.18 0 0 0 1.181-.731 5.976 5.976 0 0 1 9.3-1.772c.65.563.8.576 1.551.134a2.564 2.564 0 0 1 3.595 1.086c.37.687.825.802 1.476.374a2.577 2.577 0 0 1 3.809 3.237 2.653 2.653 0 0 1-2.968 1.382c-.223-.049-.437-.137-.657-.199a.843.843 0 0 0-1.116.79 3.64 3.64 0 0 0 .02.472l.501 6.659c.045.606-.163.982-.595 1.101a.854.854 0 0 1-1.1-.822c-.082-.858-.127-1.719-.203-2.577a14.876 14.876 0 0 0-.232-2.008c-.357-1.553-1.431-2.362-2.956-2.61-.469-.059-.941-.088-1.414-.087a2.43 2.43 0 0 0-1.963.888 3.378 3.378 0 0 1-4.599.373 2.737 2.737 0 0 0-1.562-.643 1.763 1.763 0 0 0-1.781 1.166 4.236 4.236 0 0 1-3.435 2.596c-.706.097-.98.417-.928 1.13.149 2.048.307 4.096.461 6.144.012.157.031.315.032.472a.904.904 0 0 1-.85.997.874.874 0 0 1-.945-.894c-.137-1.703-.26-3.407-.389-5.111l-.022-.301Z" fill="#fde3ca"/><path d="m53.334 112.074.531 7.047c.138 1.838-.819 2.945-2.66 3.084-1.188.09-2.379.162-3.565.28-.374.037-.473-.076-.467-.422a5.768 5.768 0 0 0-.07-.945c-.038-.262.04-.343.307-.359 1.247-.08 2.493-.181 3.739-.276.788-.061 1.068-.379 1.008-1.172-.355-4.74-.712-9.481-1.072-14.221-.062-.82-.379-1.084-1.2-1.023-1.231.092-2.464.176-3.694.286-.289.025-.374-.058-.378-.334-.004-.359-.039-.717-.079-1.074-.023-.212.022-.302.26-.317 1.376-.091 2.75-.22 4.126-.297a2.484 2.484 0 0 1 2.608 2.142c.179 1.54.261 3.09.382 4.637.078.988.15 1.976.224 2.964Z" fill="#94e6ed"/><path d="m37.191 127.585 1.692-.128c.21.542.47.748.91.724.462-.026.705-.276.835-.856l1.692-.126c.183.618.464.819 1.096.775.645-.046 1.292-.079 1.933-.152.382-.043.377.093.24.365a2.55 2.55 0 0 1-2.187 1.519c-3.307.258-6.616.502-9.924.752l-7.175.539a2.574 2.574 0 0 1-2.432-1.175c-.195-.277-.148-.362.2-.388 4.038-.295 8.077-.597 12.115-.908.67-.051.913-.281 1.005-.941Z" fill="#fde3ca"/><path d="m25.8 114.914-.58-7.687c-.007-.1-.016-.2-.021-.3-.04-.657.263-1.087.789-1.123.527-.036.888.339.938 1.003.405 5.339.808 10.678 1.208 16.017.05.673-.243 1.073-.789 1.111a.82.82 0 0 1-.874-.611 3.036 3.036 0 0 1-.076-.552c-.2-2.62-.398-5.239-.594-7.858ZM34.409 114.308l.6 7.987c.05.661-.217 1.052-.736 1.115a.825.825 0 0 1-.935-.636 2.783 2.783 0 0 1-.064-.468l-1.19-15.759c-.058-.777.211-1.215.77-1.261.56-.045.9.35.958 1.121l.597 7.901ZM40.628 127.325c-.13.581-.373.83-.834.856-.441.024-.701-.182-.911-.724.04-.596.331-.953.803-.989.471-.035.81.273.942.857Z" fill="#7171f4"/></g><g id="Layer-4" vectornator:layerName="Layer 4" fill="#7171f4" fill-rule="evenodd"><path d="M50.345 114.505c-.504.331-1.072.677-1.707 1.036M49.974 110.815c5.86-.933 6.542.796.507 3.69"/></g></svg>